<mxfile host="app.diagrams.net" modified="2022-08-02T01:00:20.152Z" agent="5.0 (X11; Linux x86_64) AppleWebKit/537.36 (KHTML, like Gecko) Chrome/77.0.3865.120 Safari/537.36" etag="VgTj9mh9W2ZSpczVp4Ha" version="20.0.4" type="github">
  <diagram id="0fG35n1LlcOyW4Oh1XHT" name="Page-1">
    <mxGraphModel dx="918" dy="604" grid="1" gridSize="10" guides="1" tooltips="1" connect="1" arrows="1" fold="1" page="1" pageScale="1" pageWidth="827" pageHeight="1169" math="0" shadow="0">
      <root>
        <mxCell id="0" />
        <mxCell id="1" parent="0" />
        <mxCell id="AFuIYjZP2LUo43TkPhWC-21" value="" style="group" vertex="1" connectable="0" parent="1">
          <mxGeometry x="40" y="70" width="450" height="380" as="geometry" />
        </mxCell>
        <mxCell id="AFuIYjZP2LUo43TkPhWC-8" value="" style="html=1;shadow=0;dashed=0;shape=mxgraph.bootstrap.rrect;rSize=5;strokeColor=#DFDFDF;html=1;whiteSpace=wrap;fillColor=#FFFFFF;fontColor=#000000;container=0;" vertex="1" parent="AFuIYjZP2LUo43TkPhWC-21">
          <mxGeometry width="450" height="380" as="geometry" />
        </mxCell>
        <mxCell id="AFuIYjZP2LUo43TkPhWC-9" value="身份校验" style="html=1;shadow=0;dashed=0;shape=mxgraph.bootstrap.topButton;strokeColor=inherit;fillColor=#F7F7F7;rSize=5;perimeter=none;whiteSpace=wrap;resizeWidth=1;align=left;spacing=20;fontSize=14;" vertex="1" parent="AFuIYjZP2LUo43TkPhWC-21">
          <mxGeometry width="449.99999999999994" height="40" as="geometry" />
        </mxCell>
        <mxCell id="AFuIYjZP2LUo43TkPhWC-11" value="" style="html=1;shadow=0;dashed=0;shape=mxgraph.bootstrap.rrect;rSize=5;fillColor=#ffffff;strokeColor=#999999;" vertex="1" parent="AFuIYjZP2LUo43TkPhWC-21">
          <mxGeometry x="100" y="90" width="250" height="160" as="geometry" />
        </mxCell>
        <mxCell id="AFuIYjZP2LUo43TkPhWC-14" value="Password" style="fillColor=none;strokeColor=none;align=left;spacing=20;fontSize=14;" vertex="1" parent="AFuIYjZP2LUo43TkPhWC-11">
          <mxGeometry width="220" height="40" relative="1" as="geometry">
            <mxPoint x="10" y="10" as="offset" />
          </mxGeometry>
        </mxCell>
        <mxCell id="AFuIYjZP2LUo43TkPhWC-15" value="Password" style="html=1;shadow=0;dashed=0;shape=mxgraph.bootstrap.rrect;rSize=5;fillColor=none;strokeColor=#999999;align=left;spacing=15;fontSize=14;fontColor=#6C767D;" vertex="1" parent="AFuIYjZP2LUo43TkPhWC-11">
          <mxGeometry width="180" height="30" relative="1" as="geometry">
            <mxPoint x="30" y="50" as="offset" />
          </mxGeometry>
        </mxCell>
        <mxCell id="AFuIYjZP2LUo43TkPhWC-17" value="Sign in" style="html=1;shadow=0;dashed=0;shape=mxgraph.bootstrap.rrect;rSize=5;fillColor=#0085FC;strokeColor=none;align=center;fontSize=14;fontColor=#FFFFFF;" vertex="1" parent="AFuIYjZP2LUo43TkPhWC-11">
          <mxGeometry width="70" height="40" relative="1" as="geometry">
            <mxPoint x="30" y="100" as="offset" />
          </mxGeometry>
        </mxCell>
        <mxCell id="AFuIYjZP2LUo43TkPhWC-22" value="" style="group" vertex="1" connectable="0" parent="1">
          <mxGeometry x="520" y="80" width="860" height="560" as="geometry" />
        </mxCell>
        <mxCell id="AFuIYjZP2LUo43TkPhWC-54" value="" style="group" vertex="1" connectable="0" parent="AFuIYjZP2LUo43TkPhWC-22">
          <mxGeometry width="820" height="560" as="geometry" />
        </mxCell>
        <mxCell id="AFuIYjZP2LUo43TkPhWC-23" value="" style="html=1;shadow=0;dashed=0;shape=mxgraph.bootstrap.rrect;rSize=5;strokeColor=#DFDFDF;html=1;whiteSpace=wrap;fillColor=#FFFFFF;fontColor=#000000;container=0;" vertex="1" parent="AFuIYjZP2LUo43TkPhWC-54">
          <mxGeometry width="820" height="560" as="geometry" />
        </mxCell>
        <mxCell id="AFuIYjZP2LUo43TkPhWC-24" value="功能列表" style="html=1;shadow=0;dashed=0;shape=mxgraph.bootstrap.topButton;strokeColor=inherit;fillColor=#F7F7F7;rSize=5;perimeter=none;whiteSpace=wrap;resizeWidth=1;align=left;spacing=20;fontSize=14;" vertex="1" parent="AFuIYjZP2LUo43TkPhWC-54">
          <mxGeometry width="819.9999999999999" height="58.94736842105263" as="geometry" />
        </mxCell>
        <mxCell id="AFuIYjZP2LUo43TkPhWC-55" value="" style="group" vertex="1" connectable="0" parent="AFuIYjZP2LUo43TkPhWC-54">
          <mxGeometry y="58.95" width="820" height="501.05" as="geometry" />
        </mxCell>
        <mxCell id="AFuIYjZP2LUo43TkPhWC-39" value="" style="fillColor=#F8F9FA;strokeColor=none;align=left;fontSize=14;fontColor=#323232;" vertex="1" parent="AFuIYjZP2LUo43TkPhWC-55">
          <mxGeometry width="307.5" height="501.05" as="geometry" />
        </mxCell>
        <mxCell id="AFuIYjZP2LUo43TkPhWC-40" value="Navbar" style="html=1;shadow=0;dashed=0;fillColor=none;strokeColor=none;perimeter=none;whiteSpace=wrap;resizeWidth=1;align=center;fontSize=18;" vertex="1" parent="AFuIYjZP2LUo43TkPhWC-39">
          <mxGeometry width="307.5" height="40" relative="1" as="geometry" />
        </mxCell>
        <mxCell id="AFuIYjZP2LUo43TkPhWC-41" value="Item 1" style="html=1;shadow=0;dashed=0;shape=mxgraph.bootstrap.rrect;rSize=5;fillColor=#0085FC;strokeColor=none;perimeter=none;whiteSpace=wrap;align=left;spacing=15;fontColor=#FFFFFF;fontSize=14;" vertex="1" parent="AFuIYjZP2LUo43TkPhWC-39">
          <mxGeometry x="0.5" width="100" height="40" relative="1" as="geometry">
            <mxPoint x="-50" y="40" as="offset" />
          </mxGeometry>
        </mxCell>
        <mxCell id="AFuIYjZP2LUo43TkPhWC-42" value="Item 1-1" style="html=1;shadow=0;dashed=0;fillColor=none;strokeColor=none;perimeter=none;whiteSpace=wrap;align=left;spacing=15;fontColor=#0085FC;fontSize=14;" vertex="1" parent="AFuIYjZP2LUo43TkPhWC-39">
          <mxGeometry x="0.5" width="100" height="40" relative="1" as="geometry">
            <mxPoint x="-40" y="80" as="offset" />
          </mxGeometry>
        </mxCell>
        <mxCell id="AFuIYjZP2LUo43TkPhWC-43" value="Item 1-2" style="html=1;shadow=0;dashed=0;fillColor=none;strokeColor=none;perimeter=none;whiteSpace=wrap;align=left;spacing=15;fontColor=#0085FC;fontSize=14;" vertex="1" parent="AFuIYjZP2LUo43TkPhWC-39">
          <mxGeometry x="0.5" width="100" height="40" relative="1" as="geometry">
            <mxPoint x="-40" y="120" as="offset" />
          </mxGeometry>
        </mxCell>
        <mxCell id="AFuIYjZP2LUo43TkPhWC-44" value="Item 2" style="html=1;shadow=0;dashed=0;fillColor=none;strokeColor=none;perimeter=none;whiteSpace=wrap;align=left;spacing=15;fontColor=#0085FC;fontSize=14;" vertex="1" parent="AFuIYjZP2LUo43TkPhWC-39">
          <mxGeometry x="0.5" width="100" height="40" relative="1" as="geometry">
            <mxPoint x="-50" y="160" as="offset" />
          </mxGeometry>
        </mxCell>
        <mxCell id="AFuIYjZP2LUo43TkPhWC-45" value="Item 3" style="html=1;shadow=0;dashed=0;fillColor=none;strokeColor=none;perimeter=none;whiteSpace=wrap;align=left;spacing=15;fontColor=#0085FC;fontSize=14;" vertex="1" parent="AFuIYjZP2LUo43TkPhWC-39">
          <mxGeometry x="0.5" width="100" height="40" relative="1" as="geometry">
            <mxPoint x="-50" y="200" as="offset" />
          </mxGeometry>
        </mxCell>
        <mxCell id="AFuIYjZP2LUo43TkPhWC-46" value="Item 3-1" style="html=1;shadow=0;dashed=0;fillColor=none;strokeColor=none;perimeter=none;whiteSpace=wrap;align=left;spacing=15;fontColor=#0085FC;fontSize=14;" vertex="1" parent="AFuIYjZP2LUo43TkPhWC-39">
          <mxGeometry x="0.5" width="100" height="40" relative="1" as="geometry">
            <mxPoint x="-40" y="240" as="offset" />
          </mxGeometry>
        </mxCell>
        <mxCell id="AFuIYjZP2LUo43TkPhWC-47" value="Item 3-2" style="html=1;shadow=0;dashed=0;fillColor=none;strokeColor=none;perimeter=none;whiteSpace=wrap;align=left;spacing=15;fontColor=#0085FC;fontSize=14;" vertex="1" parent="AFuIYjZP2LUo43TkPhWC-39">
          <mxGeometry x="0.5" width="100" height="40" relative="1" as="geometry">
            <mxPoint x="-40" y="280" as="offset" />
          </mxGeometry>
        </mxCell>
        <mxCell id="AFuIYjZP2LUo43TkPhWC-48" value="&lt;font style=&quot;font-size: 18px&quot;&gt;&lt;b&gt;Item 1&lt;/b&gt;&lt;/font&gt;&lt;br&gt;Ex consequat commodo adipisicing exercitation aute excepteur occaecat ullamco duis aliqua id magna ullamco eu. Do aute ipsum ipsum ullamco cillum consectetur ut et aute consectetur labore. Fugiat laborum incididunt tempor eu consequat enim dolore proident. Qui laborum do non excepteur nulla magna eiusmod consectetur in. Aliqua et aliqua officia quis et incididunt voluptate non anim reprehenderit adipisicing dolore ut consequat deserunt mollit dolore. Aliquip nulla enim veniam non fugiat id cupidatat nulla elit cupidatat commodo velit ut eiusmod cupidatat elit dolore.&lt;br&gt;&lt;br&gt;&lt;b&gt;&lt;font style=&quot;font-size: 16px&quot;&gt;Item 1-1&lt;/font&gt;&lt;/b&gt;&lt;br&gt;Amet tempor mollit aliquip pariatur excepteur commodo do ea cillum commodo Lorem et occaecat elit qui et. Aliquip labore ex ex esse voluptate occaecat Lorem ullamco deserunt. Aliqua cillum excepteur irure consequat id quis ea. Sit proident ullamco aute magna pariatur nostrud labore. Reprehenderit aliqua commodo eiusmod aliquip est do duis amet proident magna consectetur consequat eu commodo fugiat non quis. Enim aliquip exercitation ullamco adipisicing voluptate" style="fillColor=none;strokeColor=none;align=left;fontSize=14;fontColor=#323232;html=1;whiteSpace=wrap;verticalAlign=top;spacingRight=25;" vertex="1" parent="AFuIYjZP2LUo43TkPhWC-55">
          <mxGeometry x="328" width="491.99999999999994" height="501.05" as="geometry" />
        </mxCell>
        <mxCell id="AFuIYjZP2LUo43TkPhWC-49" value="" style="html=1;shadow=0;dashed=0;fillColor=#F1F1F1;strokeColor=none;" vertex="1" parent="AFuIYjZP2LUo43TkPhWC-48">
          <mxGeometry x="1" width="20" height="330" relative="1" as="geometry">
            <mxPoint x="-20" as="offset" />
          </mxGeometry>
        </mxCell>
        <mxCell id="AFuIYjZP2LUo43TkPhWC-50" value="" style="fillColor=#C1C1C1;strokeColor=none;" vertex="1" parent="AFuIYjZP2LUo43TkPhWC-49">
          <mxGeometry width="16" height="45" relative="1" as="geometry">
            <mxPoint x="2" y="20" as="offset" />
          </mxGeometry>
        </mxCell>
        <mxCell id="AFuIYjZP2LUo43TkPhWC-51" value="" style="shape=triangle;direction=north;fillColor=#C1C1C1;strokeColor=none;perimeter=none;" vertex="1" parent="AFuIYjZP2LUo43TkPhWC-49">
          <mxGeometry width="10" height="5" relative="1" as="geometry">
            <mxPoint x="5" y="7.5" as="offset" />
          </mxGeometry>
        </mxCell>
        <mxCell id="AFuIYjZP2LUo43TkPhWC-52" value="" style="shape=triangle;direction=south;fillColor=#505050;strokeColor=none;perimeter=none;" vertex="1" parent="AFuIYjZP2LUo43TkPhWC-49">
          <mxGeometry y="1" width="10" height="5" relative="1" as="geometry">
            <mxPoint x="5" y="-12.5" as="offset" />
          </mxGeometry>
        </mxCell>
      </root>
    </mxGraphModel>
  </diagram>
</mxfile>
